<svg xmlns="http://www.w3.org/2000/svg" width="74" height="30"><path fill="#A1B0C2" d="M.7.7v1.994h14.131V.7H.7Zm16.134 0v1.994h20.138S34.915.7 32.19.7H16.834Zm24.088 0v1.994h12.183L52.382.7h-11.46ZM61.84.7l-.723 1.994h12.072V.7H61.84ZM.7 4.579v1.994h14.131V4.579H.7Zm16.134.002v1.992h22.474s-.262-1.535-.72-1.992H16.834Zm24.088 0v1.992h13.519l-.67-1.992H40.923Zm19.472 0-.67 1.992H73.19V4.58H60.394ZM4.76 8.457v1.997h6.12V8.457h-6.12Zm16.134 0v1.997h6.12V8.457h-6.12Zm12.072 0v1.997h6.12s.389-1.054.389-1.997h-6.509Zm12.016 0v1.997h10.85l-.723-1.997H44.983Zm14.078 0-.726 1.997h10.904V8.457H59.06ZM4.76 12.34v1.994h6.12v-1.994h-6.12Zm16.134 0v1.994h15.631s1.308-1.023 1.725-1.994H20.895Zm24.088 0v1.994h6.12v-1.11l.389 1.11h11.21l.417-1.11v1.11h6.12v-1.994H57.75l-.61 1.689-.613-1.69H44.983ZM4.761 16.217v1.994h6.12v-1.994h-6.12Zm16.134 0v1.994H38.25c-.417-.967-1.725-1.994-1.725-1.994H20.895Zm24.088 0v1.994h6.12v-1.994h-6.12Zm7.232 0 .74 1.994h8.406l.703-1.994h-9.85Zm10.904 0v1.994h6.12v-1.994h-6.12ZM4.761 20.096v1.994h6.12v-1.994h-6.12Zm16.134 0v1.994h6.12v-1.994h-6.12Zm12.072 0v1.994h6.509c0-.941-.389-1.994-.389-1.994h-6.12Zm12.016 0v1.994h6.12v-1.994h-6.12Zm8.621 0 .718 1.994h5.635l.723-1.994h-7.076Zm9.515 0v1.994h6.12v-1.994h-6.12ZM.811 23.974v1.997h14.131v-1.997H.811Zm16.023 0v1.997h21.754c.458-.457.72-1.997.72-1.997H16.834Zm24.199 0v1.997h10.07v-1.997h-10.07Zm13.964 0 .737 1.997h2.867l.692-1.997h-4.296Zm8.122 0v1.997H73.3v-1.997H63.119ZM.811 27.856v1.994h14.131v-1.994H.811Zm16.023 0v1.991H32.19c2.725 0 4.782-1.991 4.782-1.991H16.834Zm24.199 0v1.994h10.07v-1.994h-10.07Zm15.362 0 .709 1.988.122.003.72-1.991h-1.551Zm6.724 0v1.994H73.3v-1.994H63.119Z"/></svg>