<svg xmlns="http://www.w3.org/2000/svg" width="110" height="25"><g fill="#A1B0C2"><path d="m39.244 14.004-.648 1.858h-.054a13.29 13.29 0 0 0-.63-1.822l-3.476-8.832h-3.403v14.077h2.25v-8.687c0-.546 0-1.165-.017-1.93-.018-.383-.054-.674-.072-.892h.054c.108.546.234.947.324 1.202l4.178 10.271h1.584l4.142-10.363c.09-.236.18-.71.27-1.11h.054c-.054 1.038-.09 1.966-.108 2.531v8.924h2.395V5.17H42.81l-3.566 8.833zm9.112-4.863h2.34v10.09h-2.34V9.14zm1.188-4.261c-.396 0-.72.146-.99.4a1.3 1.3 0 0 0-.414.984c0 .382.144.71.414.965s.594.383.99.383.738-.146.99-.383c.27-.255.415-.583.415-.965s-.144-.71-.415-.983c-.234-.255-.576-.401-.99-.401zm9.454 4.17a6.459 6.459 0 0 0-1.315-.145c-1.062 0-2.035.236-2.845.71-.81.473-1.458 1.13-1.873 1.949-.432.837-.648 1.803-.648 2.913 0 .966.216 1.822.63 2.605.415.765.99 1.384 1.765 1.803.738.419 1.603.637 2.575.637 1.116 0 2.07-.237 2.827-.674l.018-.018v-2.185l-.09.073a4.008 4.008 0 0 1-1.134.6c-.414.146-.793.22-1.117.22-.936 0-1.674-.274-2.197-.875-.54-.583-.81-1.384-.81-2.386 0-1.038.27-1.857.828-2.458.559-.601 1.297-.911 2.197-.911.757 0 1.53.255 2.233.765l.09.073V9.433l-.018-.018c-.306-.128-.648-.274-1.116-.365zm7.725-.072c-.577 0-1.117.182-1.585.564-.396.328-.666.801-.9 1.366h-.018V9.141h-2.341v10.09h2.34v-5.154c0-.874.18-1.603.577-2.13.396-.547.9-.82 1.512-.82.217 0 .433.054.703.09.252.073.432.146.558.237l.09.073V9.16l-.054-.019c-.162-.109-.486-.163-.882-.163zm6.374-.055c-1.639 0-2.953.492-3.871 1.457-.937.965-1.387 2.295-1.387 3.97 0 1.566.468 2.841 1.369 3.77.9.91 2.124 1.384 3.655 1.384 1.603 0 2.881-.492 3.8-1.475.936-.984 1.386-2.295 1.386-3.916 0-1.602-.432-2.877-1.315-3.806-.846-.929-2.088-1.384-3.637-1.384zm1.873 7.758c-.432.565-1.117.838-1.963.838-.846 0-1.53-.273-2.017-.874-.486-.565-.72-1.384-.72-2.422 0-1.075.252-1.894.72-2.477.486-.583 1.153-.874 1.999-.874.828 0 1.477.273 1.945.837.468.565.72 1.384.72 2.459-.036 1.093-.234 1.949-.684 2.513zm8.301-3.35c-.738-.31-1.207-.547-1.423-.748-.18-.182-.27-.437-.27-.764 0-.274.108-.547.378-.729.27-.182.577-.273 1.027-.273.396 0 .81.073 1.206.182.396.11.757.273 1.045.492l.09.073V9.342l-.054-.018c-.27-.11-.63-.219-1.063-.31a7.14 7.14 0 0 0-1.152-.11c-1.117 0-2.035.274-2.755.875-.72.564-1.063 1.33-1.063 2.222 0 .473.072.892.235 1.238.162.346.396.674.72.947.324.255.792.546 1.44.82.54.236.955.419 1.207.564.252.146.414.31.54.437.09.146.144.328.144.565 0 .674-.504 1.001-1.53 1.001-.397 0-.81-.072-1.297-.236a4.989 4.989 0 0 1-1.315-.674l-.09-.073v2.313l.054.018c.343.164.757.273 1.26.4.505.092.955.165 1.351.165 1.207 0 2.197-.273 2.9-.874.72-.583 1.098-1.33 1.098-2.295 0-.674-.18-1.275-.576-1.73a7.285 7.285 0 0 0-2.107-1.257zm8.86-4.408c-1.64 0-2.954.492-3.872 1.457-.918.965-1.387 2.295-1.387 3.97 0 1.566.469 2.841 1.369 3.77.9.91 2.125 1.384 3.655 1.384 1.603 0 2.881-.492 3.8-1.475.936-.984 1.386-2.295 1.386-3.916 0-1.602-.432-2.877-1.314-3.806-.847-.929-2.09-1.384-3.638-1.384zm1.854 7.758c-.432.565-1.116.838-1.963.838-.864 0-1.53-.273-2.016-.874-.487-.565-.72-1.384-.72-2.422 0-1.075.251-1.894.72-2.477.486-.583 1.152-.874 1.998-.874.81 0 1.477.273 1.945.837.468.565.72 1.384.72 2.459 0 1.093-.234 1.949-.684 2.513zm15.612-5.59V9.14h-2.359V6.155l-.072.018-2.233.674-.054.018v2.276h-3.53V7.867c0-.583.145-1.038.397-1.33.252-.291.63-.437 1.098-.437.325 0 .667.073 1.045.237l.09.054V4.334l-.054-.019c-.324-.109-.756-.182-1.315-.182-.702 0-1.314.164-1.872.437-.559.31-.973.729-1.279 1.293-.306.547-.468 1.166-.468 1.876v1.402h-1.639v1.93h1.639v8.16h2.359v-8.14h3.53v5.19c0 2.13.99 3.205 2.97 3.205.324 0 .667-.055.99-.11.343-.072.595-.163.739-.236l.018-.019v-1.948l-.09.073c-.144.09-.27.164-.486.218-.18.055-.342.073-.468.073-.469 0-.793-.11-1.027-.382-.216-.255-.324-.674-.324-1.293V11.09h2.395zM.61.89h10.965v10.965H.61zM12.865.89H23.83v10.965H12.865zM.61 13.145h10.965V24.11H.61zM12.865 13.145H23.83V24.11H12.865z"/></g></svg>