<svg width="218" height="92" xmlns="http://www.w3.org/2000/svg"><g fill="none" fill-rule="nonzero"><path d="M0 0h218v92H0z" fill="#FFF"/><g fill="#9DA7B4"><path d="M60.65 42.445v-1.183c0-.167-.138-.285-.3-.285h-8.077c-.161 0-.296.118-.296.285v1.183c0 .167.135.271.296.271h3v8.616a.3.3 0 0 0 .3.3h1.48a.3.3 0 0 0 .302-.3v-8.616h2.996c.16 0 .299-.104.299-.27Zm10.829 8.887v-10.07c0-.167-.142-.285-.303-.285h-1.483c-.168 0-.306.118-.306.285v3.892h-4.75v-3.892c0-.167-.135-.285-.297-.285h-1.49c-.166 0-.3.118-.3.285v10.07c0 .163.134.3.3.3h1.49a.3.3 0 0 0 .296-.3v-4.348h4.75v4.348c0 .163.139.3.307.3h1.483a.308.308 0 0 0 .303-.3Zm11.9-4.263v-1.532c0-3.3-2.292-4.68-4.77-4.68-2.474 0-4.765 1.38-4.765 4.68v1.532c0 3.3 2.29 4.68 4.766 4.68 2.477 0 4.77-1.38 4.77-4.68Zm-2.104 0c0 1.98-1.191 2.868-2.665 2.868-1.47 0-2.666-.887-2.666-2.868v-1.532c0-1.98 1.195-2.869 2.666-2.869 1.474 0 2.665.888 2.665 2.869v1.532Zm15.288 4.34v-9.835a.598.598 0 0 0-.599-.597h-1.23a.636.636 0 0 0-.56.356L91.3 47.197c-.072.134-.106.207-.163.207-.062 0-.094-.072-.166-.207l-2.88-5.864a.63.63 0 0 0-.555-.356h-1.232a.596.596 0 0 0-.597.597v9.834c0 .147.12.224.255.224h1.515c.128 0 .239-.151.239-.3v-6.49c0-.102.016-.143.046-.143.012 0 .044.04.074.085l2.437 5.362a.546.546 0 0 0 .478.259h.783c.191 0 .386-.094.475-.259l2.424-5.362c.033-.044.061-.085.072-.085.036 0 .05.04.05.143v6.49c0 .149.104.3.239.3h1.517c.134 0 .253-.077.253-.223Zm33.306-.38v-9.767c0-.167-.124-.285-.294-.285h-1.29a.278.278 0 0 0-.283.285v7.399c0 .09-.043.14-.07.14-.05 0-.093-.05-.121-.124l-4.231-7.22c-.18-.392-.347-.48-.667-.48h-1.619a.598.598 0 0 0-.595.597v9.758c0 .163.131.3.298.3h1.275c.167 0 .284-.136.284-.3v-7.06c0-.085.028-.115.074-.115.047 0 .089.03.135.115l4.075 6.821c.234.539.549.539.91.539h1.517c.33 0 .602-.27.602-.603Zm-22.919-2.403c0-1.443-.822-2.187-2.09-2.7-.996-.4-1.871-.74-2.537-1-.663-.268-1.23-.723-1.23-1.214 0-.673.836-1.067 1.939-1.067 1.31 0 2.338.185 3.33.275h.032c.145 0 .255-.126.255-.275v-1.107c0-.149-.124-.253-.273-.284a14.724 14.724 0 0 0-3.249-.396c-2.789 0-4.117 1.2-4.117 2.854 0 1.049.46 2.084 1.771 2.622 1.311.539 3.99 1.162 3.99 2.292 0 .865-.404 1.345-1.74 1.345-1.389 0-2.795-.198-3.39-.272h-.033a.286.286 0 0 0-.283.287v1.08c0 .165.134.268.283.296.72.169 2.066.395 3.391.395 3.002 0 3.951-1.619 3.951-3.13Zm11.424-1.557v-1.532c0-3.3-2.296-4.68-4.769-4.68-2.473 0-4.766 1.38-4.766 4.68v1.532c0 3.3 2.293 4.68 4.766 4.68s4.77-1.38 4.77-4.68Zm-2.1 0c0 1.98-1.199 2.868-2.67 2.868-1.47 0-2.667-.887-2.667-2.868v-1.532c0-1.98 1.197-2.869 2.668-2.869 1.47 0 2.668.888 2.668 2.869v1.532Zm29.331 4.385c0-.033 0-.078-.031-.122l-2.353-4.013c1.23-.476 2.023-1.351 2.023-2.937v-.134c0-2.568-2.136-3.391-4.443-3.391-1.095 0-2.775.074-3.557.191-.302.048-.479.15-.479.45v9.834c0 .163.138.3.301.3h1.499a.292.292 0 0 0 .287-.3v-3.7c.34.019 1.555.061 1.949.061h.333l2.161 3.64c.075.148.131.299.294.299h1.836c.12 0 .18-.077.18-.178Zm-2.43-7.072c0 1.322-.833 1.619-2.374 1.619-.259 0-1.715-.034-1.949-.048v-3.252c.266-.033 1.633-.059 1.949-.059 1.499 0 2.374.48 2.374 1.605v.135Zm6.431 2.602h4.801a.303.303 0 0 0 .301-.296v-1.082a.302.302 0 0 0-.3-.3h-4.802v-1.375c0-1.257.05-1.29 1.18-1.29h3.795c.17 0 .308-.14.308-.302v-.96c0-.21-.081-.284-.308-.314-.475-.072-1.45-.209-3.235-.209-2.491 0-3.813-.018-3.813 3.076v4.744c0 3.088 1.322 3.074 3.813 3.074 1.786 0 2.76-.134 3.235-.209.227-.028.308-.1.308-.317v-.958a.304.304 0 0 0-.308-.296h-3.795c-1.13 0-1.18-.033-1.18-1.294v-1.692Zm16.52.521v-6.243c0-.167-.138-.285-.309-.285h-1.48c-.167 0-.302.118-.302.285v6.244c0 1.711-.786 2.52-2.41 2.52-1.619 0-2.412-.809-2.412-2.52v-6.244c0-.167-.128-.285-.298-.285h-1.485c-.163 0-.298.118-.298.285v6.244c0 3.195 2.077 4.244 4.493 4.244 2.417 0 4.5-1.049 4.5-4.245Zm10.159-5.06v-1.183c0-.167-.138-.285-.298-.285h-8.076c-.162 0-.297.118-.297.285v1.183c0 .167.134.271.297.271h2.995v8.616c0 .163.134.3.298.3h1.488a.304.304 0 0 0 .3-.3v-8.616h2.995c.16 0 .298-.104.298-.27Zm20.258 9.01c0-.034 0-.079-.028-.123l-2.36-4.013c1.233-.476 2.026-1.351 2.026-2.937v-.134c0-2.568-2.13-3.391-4.447-3.391-1.095 0-2.77.074-3.55.191-.301.048-.482.15-.482.45v9.834c0 .163.138.3.301.3h1.499c.166 0 .284-.136.284-.3v-3.7c.347.019 1.559.061 1.948.061h.337l2.161 3.64c.075.148.131.299.298.299h1.832c.12 0 .18-.077.18-.178Zm-2.431-7.073c0 1.322-.83 1.619-2.378 1.619-.252 0-1.704-.034-1.949-.048v-3.252c.273-.033 1.637-.059 1.949-.059 1.506 0 2.378.48 2.378 1.605v.135Zm11.922 4.244c0-1.443-.818-2.187-2.08-2.7-.846-.337-1.694-.67-2.544-1-.666-.268-1.226-.723-1.226-1.214 0-.673.833-1.067 1.946-1.067 1.303 0 2.332.185 3.32.275h.032c.148 0 .255-.126.255-.275v-1.107c0-.149-.12-.253-.273-.284a14.724 14.724 0 0 0-3.25-.396c-2.788 0-4.12 1.2-4.12 2.854 0 1.049.464 2.084 1.771 2.622 1.312.539 3.997 1.162 3.997 2.292 0 .865-.41 1.345-1.743 1.345-1.385 0-2.793-.198-3.395-.272h-.032a.29.29 0 0 0-.283.287v1.08c0 .165.141.268.283.296.723.169 2.07.395 3.395.395 3.002 0 3.947-1.619 3.947-3.13Zm-26.132-1.642h4.798a.296.296 0 0 0 .298-.296v-1.082a.294.294 0 0 0-.298-.3h-4.798v-1.375c0-1.257.047-1.29 1.184-1.29h3.798a.305.305 0 0 0 .298-.302v-.96c0-.21-.074-.284-.298-.314-.485-.072-1.46-.209-3.245-.209-2.491 0-3.81-.018-3.81 3.076v4.744c0 3.088 1.318 3.074 3.81 3.074 1.786 0 2.76-.134 3.245-.209.224-.028.298-.1.298-.317v-.958a.299.299 0 0 0-.298-.296h-3.798c-1.137 0-1.184-.033-1.184-1.294v-1.692ZM25.691 42.41a.555.555 0 1 1-.978.524.555.555 0 1 1 .978-.524Zm-2.746 4.347a.33.33 0 0 0-.13.445.322.322 0 0 0 .441.129.32.32 0 0 0 .133-.442.33.33 0 0 0-.444-.132Zm-.055-1.336a.38.38 0 0 0 .365.67.38.38 0 1 0-.366-.67Zm.346-1.286a.44.44 0 0 0-.179.59.438.438 0 0 0 .804-.082.436.436 0 0 0-.034-.333.44.44 0 0 0-.59-.175Zm.708-1.113a.49.49 0 1 0 .46.865.487.487 0 0 0 .203-.663.488.488 0 0 0-.663-.202Zm-.542 5a.274.274 0 0 0-.11.373c.073.131.238.18.371.11a.277.277 0 0 0 .108-.372.275.275 0 0 0-.369-.11Zm6.318-4.55a.334.334 0 0 0 .446.134.333.333 0 0 0 .133-.446.325.325 0 0 0-.443-.132.328.328 0 0 0-.136.444Zm-1.11-.707a.38.38 0 0 0 .516.152.381.381 0 0 0-.358-.673.388.388 0 0 0-.158.521Zm-1.282-.344a.43.43 0 0 0 .586.175.435.435 0 0 0-.079-.8.431.431 0 0 0-.331.036.434.434 0 0 0-.176.59Zm-1.34.053a.492.492 0 0 0 .667.202.495.495 0 0 0 .197-.667.49.49 0 0 0-.863.465Zm4.566 1.998c.07.133.237.18.365.11a.268.268 0 0 0 .112-.366.276.276 0 0 0-.37-.117.28.28 0 0 0-.107.373Zm-.942 5.2a.553.553 0 0 0-.757-.227.55.55 0 0 0-.222.752c.146.27.484.368.754.226a.558.558 0 0 0 .225-.751Zm-5.01-.54a.329.329 0 0 0-.442-.13.325.325 0 0 0-.133.44.32.32 0 0 0 .442.131.325.325 0 0 0 .132-.44Zm1.11.707a.381.381 0 0 0-.669.364c.096.186.33.257.514.157a.388.388 0 0 0 .156-.52Zm1.286.344a.443.443 0 0 0-.593-.177.438.438 0 1 0 .594.177Zm1.337-.054a.493.493 0 0 0-.666-.198.485.485 0 0 0-.192.665.48.48 0 0 0 .66.196.487.487 0 0 0 .198-.663Zm3.039-4.277a.338.338 0 0 0 .138-.449.326.326 0 0 0-.443-.131.324.324 0 0 0-.133.444c.084.157.279.217.438.136Zm.06 1.334a.38.38 0 0 0 .152-.517.379.379 0 0 0-.514-.154.388.388 0 0 0-.157.52c.098.182.337.249.52.151Zm-.348 1.285a.439.439 0 0 0 .181-.592.438.438 0 0 0-.77.417c.115.21.377.287.589.175Zm-.703 1.108a.487.487 0 0 0 .197-.663.49.49 0 1 0-.862.467.486.486 0 0 0 .665.196ZM29.442 41.082a.711.711 0 0 1-.887.48.712.712 0 0 1 .035-1.379.715.715 0 0 1 .852.9Zm-6.854 1.688a.359.359 0 0 0-.439.241.353.353 0 0 0 .677.198.353.353 0 0 0-.238-.439Zm1.24-1.363a.434.434 0 0 0-.54.296.434.434 0 0 0 .295.54.438.438 0 0 0 .542-.295.439.439 0 0 0-.297-.541Zm1.59-.962a.558.558 0 0 0-.69.375.556.556 0 0 0 .799.642.55.55 0 0 0 .265-.33.559.559 0 0 0-.375-.687Zm1.759-.393a.62.62 0 0 0-.775.42.62.62 0 0 0 .421.774.624.624 0 0 0 .354-1.194Zm-5.373 4.407a.26.26 0 0 0-.325.177.265.265 0 0 0 .177.33.265.265 0 0 0 .148-.507Zm10.677 1.587a.351.351 0 0 0 .24.438.353.353 0 1 0-.24-.438Zm-.408-1.765a.435.435 0 0 0 .296.543.434.434 0 0 0 .54-.296.432.432 0 0 0-.294-.54.435.435 0 0 0-.542.293Zm-.961-1.588a.553.553 0 1 0 .686-.373.556.556 0 0 0-.686.373Zm-1.352-1.232a.623.623 0 1 0 1.195.348.623.623 0 0 0-1.195-.348Zm2.578 6.366a.266.266 0 0 0 .177.327.262.262 0 0 0 .327-.179.262.262 0 1 0-.504-.148Zm-6.085 4.112a.716.716 0 1 0-1.373-.407.716.716 0 0 0 1.373.407Zm-4.412-5.374a.353.353 0 1 0-.677-.2.353.353 0 0 0 .677.2Zm.409 1.764a.43.43 0 0 0-.295-.536.429.429 0 0 0-.54.293.435.435 0 1 0 .835.243Zm.962 1.59a.56.56 0 0 0-.378-.69.555.555 0 1 0 .378.69Zm1.352 1.235a.625.625 0 0 0-.898-.722.619.619 0 0 0-.297.373.62.62 0 0 0 .421.77.626.626 0 0 0 .774-.421Zm7.168-1.314a.355.355 0 0 0 .441-.239.357.357 0 0 0-.239-.44.354.354 0 0 0-.202.678Zm-1.237 1.365c.23.068.47-.063.539-.293a.434.434 0 0 0-.293-.543.44.44 0 0 0-.544.295.44.44 0 0 0 .298.541Zm-1.59.962a.553.553 0 1 0 .316-1.059.553.553 0 0 0-.315 1.06Zm-1.757.392a.616.616 0 0 0 .772-.418.623.623 0 0 0-1.196-.35.622.622 0 0 0 .424.768ZM33 41.446a.919.919 0 1 1-1.334-1.264A.919.919 0 0 1 33 41.446Zm-9.153-2.087a.454.454 0 0 0-.622.658.453.453 0 0 0 .622-.658Zm2.294-.873a.56.56 0 0 0-.941.424.56.56 0 0 0 .966.366.562.562 0 0 0-.025-.79Zm2.462-.18a.712.712 0 0 0-1.004.029.711.711 0 0 0 1.034.975.712.712 0 0 0-.03-1.004Zm2.329.596a.797.797 0 0 0-1.348.604.799.799 0 1 0 1.348-.604Zm-9.03 1.985a.34.34 0 0 0-.57.255.336.336 0 0 0 .346.329.338.338 0 0 0 .223-.584Zm11.752 8.33a.454.454 0 0 0 .018.642.455.455 0 0 0 .623-.662.455.455 0 0 0-.641.02Zm.58-2.339a.56.56 0 0 0 .816.766.556.556 0 0 0-.025-.79.562.562 0 0 0-.791.024Zm-.178-2.463a.709.709 0 0 0 .539 1.197.709.709 0 0 0 .495-.224.71.71 0 0 0-1.034-.973Zm-.86-2.282a.8.8 0 1 0 1.164 1.095.8.8 0 0 0-1.164-1.095Zm-.79 9.113a.336.336 0 1 0 .49.46.33.33 0 0 0-.013-.474.334.334 0 0 0-.477.014Zm-9.748 1.18a.92.92 0 0 0-1.338-1.26.92.92 0 0 0 1.338 1.26Zm-1.989-9.033a.453.453 0 1 0-.66-.622.453.453 0 0 0 .66.622Zm-.582 2.34a.563.563 0 0 0-.023-.792.56.56 0 0 0-.769.814.562.562 0 0 0 .792-.022Zm.179 2.462a.712.712 0 0 0-1.035-.976.712.712 0 0 0 1.035.976Zm.858 2.283a.8.8 0 0 0-.604-1.346.796.796 0 0 0-.556.251.798.798 0 1 0 1.16 1.095Zm9.351 2.773a.452.452 0 1 0 .62-.656.452.452 0 0 0-.62.656Zm-2.295.872a.56.56 0 0 0 .768-.813.56.56 0 0 0-.768.813Zm-2.463.178a.709.709 0 1 0 .975-1.03.714.714 0 0 0-1.005.028.708.708 0 0 0 .03 1.002Zm-2.324-.593a.796.796 0 1 0 1.093-1.161.798.798 0 0 0-1.093 1.161ZM36.73 43.39a1.114 1.114 0 0 1-.88-2.044 1.113 1.113 0 0 1 .88 2.045Zm-7.813-7.081a.612.612 0 0 0-.722-.482.611.611 0 0 0-.482.722.614.614 0 0 0 1.204-.24Zm2.635.573a.742.742 0 0 0-.904-.536.741.741 0 0 0-.537.904.744.744 0 0 0 1.441-.368Zm2.43 1.173a.924.924 0 0 0-1.16-.609.926.926 0 0 0-.61 1.162.928.928 0 0 0 1.77-.553Zm1.939 1.727a1.02 1.02 0 0 0-1.314-.603 1.02 1.02 0 0 0-.604 1.313 1.023 1.023 0 0 0 1.918-.71ZM23.634 37a.446.446 0 1 0-.82.354.446.446 0 0 0 .82-.354Zm11.148 14.745a.615.615 0 0 0 .71 1.002.614.614 0 1 0-.71-1.002Zm1.22-2.396a.744.744 0 1 0 .772 1.273.744.744 0 0 0-.771-1.273Zm.578-2.696a.929.929 0 0 0 .204 1.702c.237.066.49.035.704-.086a.924.924 0 0 0 .355-1.261.926.926 0 0 0-1.263-.355Zm-.035-2.703a1.023 1.023 0 1 0 .91 1.832 1.023 1.023 0 0 0-.91-1.832ZM30.92 55.026a.447.447 0 1 0 .354.82.447.447 0 0 0-.354-.82Zm-12.449-3.761a1.113 1.113 0 1 0-.885-2.043 1.113 1.113 0 0 0 .885 2.043Zm1.067-10.398a.613.613 0 1 0-.708-1 .613.613 0 0 0 .708 1Zm-1.22 2.396a.745.745 0 1 0-.796-1.26.745.745 0 0 0 .796 1.26Zm-.58 2.696a.927.927 0 1 0-.908-1.616.927.927 0 0 0 .908 1.616Zm.036 2.704a1.023 1.023 0 1 0-.908-1.833 1.023 1.023 0 0 0 .908 1.833Zm7.629 7.641a.615.615 0 1 0 1.206-.24.615.615 0 0 0-1.206.24Zm-2.634-.575a.742.742 0 0 0 1.435.018.743.743 0 1 0-1.435-.018Zm-2.431-1.173a.922.922 0 0 0 1.16.609.925.925 0 0 0 .61-1.16.929.929 0 0 0-1.708-.155.924.924 0 0 0-.062.706Zm-1.94-1.728a1.019 1.019 0 0 0 1.314.603 1.022 1.022 0 0 0-.708-1.917c-.53.196-.8.784-.605 1.314Zm14.63.901a.48.48 0 1 0 .62.733.48.48 0 0 0-.62-.733Zm-4.498 1.939a.481.481 0 1 0 .144.952.481.481 0 0 0-.144-.952Zm-2.335-19.27a.48.48 0 1 0-.948.14.48.48 0 0 0 .948-.14Zm-4.824 1.81a.482.482 0 0 0-.84.43.48.48 0 1 0 .84-.43ZM39.892 47.73a1.426 1.426 0 1 1 .004-2.85 1.426 1.426 0 0 1-.004 2.85ZM34.297 35.44a.784.784 0 0 0-.605-.932.784.784 0 0 0-.933.604.787.787 0 1 0 1.538.328Zm2.809 2.01a.951.951 0 0 0-.792-1.089.954.954 0 0 0-.298 1.883.955.955 0 0 0 1.09-.793Zm3.665 5.628a1.307 1.307 0 0 0-1.239-1.376 1.307 1.307 0 0 0-1.377 1.239 1.31 1.31 0 1 0 2.616.137ZM27.733 33.57A.571.571 0 0 0 27.16 33a.572.572 0 0 0 0 1.144.572.572 0 0 0 .573-.573Zm5.632 22.995a.787.787 0 1 0 .327 1.54.787.787 0 0 0-.327-1.54Zm2.65-2.197a.953.953 0 1 0 .279 1.885.953.953 0 0 0-.278-1.885Zm2.048-2.878a1.187 1.187 0 1 0 .248 2.362 1.187 1.187 0 0 0-.248-2.362Zm1.33-3.197a1.31 1.31 0 0 0-.807 2.281c.259.233.6.353.946.334a1.307 1.307 0 0 0 1.239-1.376 1.312 1.312 0 0 0-1.378-1.24ZM27.16 58.467a.572.572 0 0 0 0 1.144.572.572 0 1 0 0-1.144ZM14.426 47.73a1.426 1.426 0 0 0 0-2.85 1.424 1.424 0 1 0 0 2.85Zm6.529-11.686a.787.787 0 1 0-.328-1.54.787.787 0 0 0 .328 1.54Zm-2.65 2.198a.955.955 0 0 0 .411-1.713.952.952 0 0 0-1.5.92c.081.52.569.875 1.088.793Zm-2.05 2.877a1.188 1.188 0 0 0-.247-2.362 1.185 1.185 0 0 0-1.057 1.306 1.186 1.186 0 0 0 1.305 1.056Zm-1.329 3.197a1.31 1.31 0 1 0-.14-2.617 1.31 1.31 0 0 0 .14 2.617Zm5.096 12.856a.787.787 0 1 0 1.539.327.787.787 0 0 0-1.539-.327Zm-2.806-2.012a.95.95 0 0 0 .79 1.09.952.952 0 1 0-.79-1.09ZM14.95 52.55a1.184 1.184 0 0 0 1.056 1.304 1.186 1.186 0 0 0 1.048-1.928 1.188 1.188 0 0 0-2.104.624Zm-1.403-3.016a1.307 1.307 0 0 0 1.239 1.375 1.306 1.306 0 0 0 1.378-1.238 1.311 1.311 0 0 0-2.617-.137Zm16.748 8.479a.615.615 0 1 0 .317 1.186.615.615 0 0 0-.317-1.186Zm-6.273 0a.614.614 0 1 0-.292 1.193.614.614 0 0 0 .292-1.193Zm7.028-23.847a.614.614 0 0 0-.437-.753.615.615 0 0 0-.317 1.187.615.615 0 0 0 .754-.434Zm-6.592-.32a.614.614 0 0 0-1.128-.147.613.613 0 0 0 .374.9.615.615 0 0 0 .754-.752Z"/></g></g></svg>